<?xml version="1.0" standalone="no"?>
<!DOCTYPE svg PUBLIC "-//W3C//DTD SVG 20010904//EN"
 "http://www.w3.org/TR/2001/REC-SVG-20010904/DTD/svg10.dtd">
<svg version="1.0" xmlns="http://www.w3.org/2000/svg"
 width="120.000000pt" height="120.000000pt" viewBox="0 0 120.000000 120.000000"
 preserveAspectRatio="xMidYMid meet">

<g transform="translate(0.000000,120.000000) scale(0.100000,-0.100000)"
fill="#000000" stroke="none">
<path d="M461 1169 c-252 -49 -381 -233 -368 -524 4 -84 1 -117 -10 -140 -13
-27 -13 -28 2 -11 8 11 15 15 15 8 0 -15 -22 -62 -29 -62 -3 0 -7 -20 -8 -45
-1 -25 2 -43 7 -40 9 6 20 -18 20 -43 0 -15 -2 -15 -10 -2 -7 11 -10 0 -10
-37 0 -48 16 -83 40 -83 4 0 11 -16 14 -35 8 -40 36 -60 72 -51 16 4 30 0 45
-15 15 -15 28 -19 47 -14 15 4 29 10 32 14 3 4 20 13 38 20 17 8 32 16 32 19
0 3 -18 22 -41 42 l-40 38 3 68 c2 38 -1 84 -5 101 l-8 33 28 -15 c41 -22 88
-18 153 11 47 21 62 24 79 15 16 -9 31 -9 59 0 31 9 45 8 76 -5 44 -18 102
-21 142 -6 15 6 28 9 31 7 2 -2 -10 -21 -27 -42 -39 -50 -46 -79 -26 -110 22
-33 20 -78 -4 -100 -11 -10 -20 -26 -20 -36 0 -23 43 -35 73 -22 12 6 37 8 55
5 18 -2 39 1 47 8 8 7 21 10 30 7 8 -4 28 5 44 18 16 14 35 25 42 25 11 0 11
2 -1 10 -12 7 -10 13 13 34 30 28 30 29 18 72 -6 22 -5 37 6 55 13 22 13 23 8
2 -4 -13 -2 -31 4 -40 20 -35 12 61 -9 102 -11 22 -20 45 -20 51 0 7 -7 14
-15 18 -8 3 -15 16 -15 28 0 107 -11 288 -20 335 -15 71 -61 161 -109 212 -93
98 -312 153 -480 120z m408 -336 c13 -35 30 -111 31 -138 0 -19 -10 -22 -92
-33 -51 -6 -121 -21 -156 -33 -62 -21 -65 -21 -130 -4 -37 9 -112 20 -167 24
l-100 6 95 13 c52 7 115 19 140 27 25 7 52 13 60 12 27 -1 148 44 185 69 20
13 39 24 44 24 4 0 20 14 36 30 35 37 40 37 54 3z m-428 -264 c34 -13 57 -54
43 -77 -6 -9 -27 -25 -48 -36 -32 -15 -41 -16 -67 -5 -40 16 -61 50 -57 90 4
47 51 57 129 28z m393 -5 c11 -29 6 -35 -16 -20 -12 9 -34 16 -49 16 -28 0
-79 -34 -79 -53 0 -6 7 -1 16 11 17 25 44 29 44 7 0 -8 7 -15 15 -15 18 0 20
17 3 23 -7 2 -9 8 -5 13 4 4 16 3 25 -4 9 -7 25 -15 35 -18 41 -14 -3 -64 -56
-64 -47 0 -99 29 -95 54 7 50 146 93 162 50z m13 -346 c-3 -8 -6 -5 -6 6 -1
11 2 17 5 13 3 -3 4 -12 1 -19z"/>
<path d="M348 553 c-17 -4 -33 -32 -23 -41 3 -3 15 4 28 16 29 27 37 28 37 2
0 -14 7 -20 23 -20 19 1 20 2 6 13 -9 7 -14 18 -12 25 5 12 -23 15 -59 5z"/>
<path d="M546 235 c-16 -13 -15 -14 15 -19 70 -10 112 6 52 20 -16 3 -33 7
-38 9 -6 1 -19 -3 -29 -10z"/>
</g>
</svg>
